# xmcd
#
# Track frame offsets: 
#        150
#        10992
#        23724
#        35310
#        47781
#        62992
#        77013
#        90187
#        101245
#        114379
#        127781
#        141912
#        155323
#        168550
#        180381
#        192023
#        204443
#        215511
#        234051
#
# Disc length: 3351 seconds
#
# Revision: 0
# Processed by: cddbd v1.5.2PL0 Copyright (c) Steve Scherf et al.
# Submitted via: ExactAudioCopy v0.99pb4
#
DISCID=eb0d1513
DTITLE=Howlin` Wolf - The world of blues - Howlin` Wolf
DYEAR=2004
DGENRE=Blues
TTITLE0=My people´s gone
TTITLE1=Back door man
TTITLE2=Down in the bottom
TTITLE3=Moving
TTITLE4=I ain´t gonna be your dog no more
TTITLE5=Commit a crime
TTITLE6=Evil
TTITLE7=You´ll be mine
TTITLE8=I ain´t superstitiuos
TTITLE9=Joy my soul
TTITLE10=Smokestack ligthnin´
TTITLE11=Tail dragger
TTITLE12=Moanin´at mdnight
TTITLE13=Oh red
TTITLE14=You gonna wreck my life
TTITLE15=Spoonful
TTITLE16=Come to my baby
TTITLE17=I want to have a word with you
TTITLE18=Howlin´ for my baby
EXTD=
EXTT0=
EXTT1=
EXTT2=
EXTT3=
EXTT4=
EXTT5=
EXTT6=
EXTT7=
EXTT8=
EXTT9=
EXTT10=
EXTT11=
EXTT12=
EXTT13=
EXTT14=
EXTT15=
EXTT16=
EXTT17=
EXTT18=
PLAYORDER=
